<mxfile host="app.diagrams.net" modified="2020-10-23T14:48:59.031Z" agent="5.0 (Macintosh; Intel Mac OS X 10_15_6) AppleWebKit/605.1.15 (KHTML, like Gecko) Version/14.0.1 Safari/605.1.15" etag="RYRi6aEuEEjFAJHMJJCl" version="13.8.1" type="github">
  <diagram id="C5RBs43oDa-KdzZeNtuy" name="Sale">
    <mxGraphModel dx="2034" dy="1931" grid="1" gridSize="10" guides="1" tooltips="1" connect="1" arrows="1" fold="1" page="1" pageScale="1" pageWidth="827" pageHeight="1169" math="0" shadow="0">
      <root>
        <mxCell id="WIyWlLk6GJQsqaUBKTNV-0" />
        <mxCell id="WIyWlLk6GJQsqaUBKTNV-1" parent="WIyWlLk6GJQsqaUBKTNV-0" />
        <mxCell id="J0FeXdYLQNQOFnLGvNW3-10" value="Y" style="edgeStyle=orthogonalEdgeStyle;rounded=0;orthogonalLoop=1;jettySize=auto;html=1;entryX=0.5;entryY=0;entryDx=0;entryDy=0;" parent="WIyWlLk6GJQsqaUBKTNV-1" source="J0FeXdYLQNQOFnLGvNW3-1" target="0Qifc_gtCfqO0uYGhMDS-1" edge="1">
          <mxGeometry x="-0.5" relative="1" as="geometry">
            <mxPoint y="-670" as="targetPoint" />
            <mxPoint as="offset" />
          </mxGeometry>
        </mxCell>
        <mxCell id="J0FeXdYLQNQOFnLGvNW3-11" value="Y" style="edgeLabel;html=1;align=center;verticalAlign=middle;resizable=0;points=[];" parent="J0FeXdYLQNQOFnLGvNW3-10" vertex="1" connectable="0">
          <mxGeometry x="-0.1429" y="-1" relative="1" as="geometry">
            <mxPoint x="1" y="-63" as="offset" />
          </mxGeometry>
        </mxCell>
        <mxCell id="0Qifc_gtCfqO0uYGhMDS-5" style="edgeStyle=orthogonalEdgeStyle;rounded=0;orthogonalLoop=1;jettySize=auto;html=1;exitX=1;exitY=0.5;exitDx=0;exitDy=0;entryX=0.5;entryY=0;entryDx=0;entryDy=0;" parent="WIyWlLk6GJQsqaUBKTNV-1" source="J0FeXdYLQNQOFnLGvNW3-1" target="0Qifc_gtCfqO0uYGhMDS-4" edge="1">
          <mxGeometry relative="1" as="geometry" />
        </mxCell>
        <mxCell id="0Qifc_gtCfqO0uYGhMDS-25" value="N" style="edgeLabel;html=1;align=center;verticalAlign=middle;resizable=0;points=[];" parent="0Qifc_gtCfqO0uYGhMDS-5" vertex="1" connectable="0">
          <mxGeometry x="0.8053" y="-310" relative="1" as="geometry">
            <mxPoint x="-15" y="-3.33" as="offset" />
          </mxGeometry>
        </mxCell>
        <mxCell id="J0FeXdYLQNQOFnLGvNW3-1" value="Prepay created?" style="rhombus;whiteSpace=wrap;html=1;" parent="WIyWlLk6GJQsqaUBKTNV-1" vertex="1">
          <mxGeometry x="-65" y="-800" width="130" height="80" as="geometry" />
        </mxCell>
        <mxCell id="J0FeXdYLQNQOFnLGvNW3-26" style="edgeStyle=orthogonalEdgeStyle;rounded=0;orthogonalLoop=1;jettySize=auto;html=1;exitX=0;exitY=0.5;exitDx=0;exitDy=0;entryX=1;entryY=0.5;entryDx=0;entryDy=0;" parent="WIyWlLk6GJQsqaUBKTNV-1" source="J0FeXdYLQNQOFnLGvNW3-37" target="J0FeXdYLQNQOFnLGvNW3-45" edge="1">
          <mxGeometry relative="1" as="geometry">
            <mxPoint x="-105" y="-400" as="sourcePoint" />
            <mxPoint x="-355" y="-370" as="targetPoint" />
          </mxGeometry>
        </mxCell>
        <mxCell id="J0FeXdYLQNQOFnLGvNW3-27" value="N" style="edgeLabel;html=1;align=center;verticalAlign=middle;resizable=0;points=[];" parent="J0FeXdYLQNQOFnLGvNW3-26" vertex="1" connectable="0">
          <mxGeometry x="-0.1375" y="3" relative="1" as="geometry">
            <mxPoint x="112" y="-3" as="offset" />
          </mxGeometry>
        </mxCell>
        <mxCell id="1pzq20t5OJXjNvF5TWlf-3" value="N" style="edgeLabel;html=1;align=center;verticalAlign=middle;resizable=0;points=[];" parent="J0FeXdYLQNQOFnLGvNW3-26" vertex="1" connectable="0">
          <mxGeometry x="-0.8633" y="2" relative="1" as="geometry">
            <mxPoint x="-8.57" as="offset" />
          </mxGeometry>
        </mxCell>
        <mxCell id="J0FeXdYLQNQOFnLGvNW3-5" style="edgeStyle=orthogonalEdgeStyle;rounded=0;orthogonalLoop=1;jettySize=auto;html=1;exitX=0.5;exitY=1;exitDx=0;exitDy=0;exitPerimeter=0;entryX=0.5;entryY=0;entryDx=0;entryDy=0;" parent="WIyWlLk6GJQsqaUBKTNV-1" source="J0FeXdYLQNQOFnLGvNW3-4" target="J0FeXdYLQNQOFnLGvNW3-33" edge="1">
          <mxGeometry relative="1" as="geometry" />
        </mxCell>
        <mxCell id="J0FeXdYLQNQOFnLGvNW3-4" value="Begin" style="strokeWidth=2;html=1;shape=mxgraph.flowchart.terminator;whiteSpace=wrap;" parent="WIyWlLk6GJQsqaUBKTNV-1" vertex="1">
          <mxGeometry x="-50" y="-990" width="100" height="60" as="geometry" />
        </mxCell>
        <mxCell id="J0FeXdYLQNQOFnLGvNW3-14" value="End" style="strokeWidth=2;html=1;shape=mxgraph.flowchart.terminator;whiteSpace=wrap;" parent="WIyWlLk6GJQsqaUBKTNV-1" vertex="1">
          <mxGeometry x="-50" y="150" width="100" height="60" as="geometry" />
        </mxCell>
        <mxCell id="J0FeXdYLQNQOFnLGvNW3-28" style="edgeStyle=orthogonalEdgeStyle;rounded=0;orthogonalLoop=1;jettySize=auto;html=1;entryX=0.5;entryY=0;entryDx=0;entryDy=0;entryPerimeter=0;" parent="WIyWlLk6GJQsqaUBKTNV-1" source="J0FeXdYLQNQOFnLGvNW3-20" target="J0FeXdYLQNQOFnLGvNW3-14" edge="1">
          <mxGeometry relative="1" as="geometry" />
        </mxCell>
        <mxCell id="J0FeXdYLQNQOFnLGvNW3-29" value="Y" style="edgeLabel;html=1;align=center;verticalAlign=middle;resizable=0;points=[];" parent="J0FeXdYLQNQOFnLGvNW3-28" vertex="1" connectable="0">
          <mxGeometry x="-0.2429" y="2" relative="1" as="geometry">
            <mxPoint x="-2" y="-3" as="offset" />
          </mxGeometry>
        </mxCell>
        <mxCell id="0Qifc_gtCfqO0uYGhMDS-16" style="edgeStyle=orthogonalEdgeStyle;rounded=0;orthogonalLoop=1;jettySize=auto;html=1;entryX=0.5;entryY=0;entryDx=0;entryDy=0;" parent="WIyWlLk6GJQsqaUBKTNV-1" source="J0FeXdYLQNQOFnLGvNW3-20" target="0Qifc_gtCfqO0uYGhMDS-15" edge="1">
          <mxGeometry relative="1" as="geometry" />
        </mxCell>
        <mxCell id="0Qifc_gtCfqO0uYGhMDS-17" value="N" style="edgeLabel;html=1;align=center;verticalAlign=middle;resizable=0;points=[];" parent="0Qifc_gtCfqO0uYGhMDS-16" vertex="1" connectable="0">
          <mxGeometry x="-0.9079" y="2" relative="1" as="geometry">
            <mxPoint x="1.76" y="2" as="offset" />
          </mxGeometry>
        </mxCell>
        <mxCell id="J0FeXdYLQNQOFnLGvNW3-20" value="Payment settled?" style="rhombus;whiteSpace=wrap;html=1;" parent="WIyWlLk6GJQsqaUBKTNV-1" vertex="1">
          <mxGeometry x="-70" y="20" width="140" height="80" as="geometry" />
        </mxCell>
        <mxCell id="J0FeXdYLQNQOFnLGvNW3-35" style="edgeStyle=orthogonalEdgeStyle;rounded=0;orthogonalLoop=1;jettySize=auto;html=1;entryX=0.5;entryY=0;entryDx=0;entryDy=0;" parent="WIyWlLk6GJQsqaUBKTNV-1" source="J0FeXdYLQNQOFnLGvNW3-33" target="J0FeXdYLQNQOFnLGvNW3-1" edge="1">
          <mxGeometry relative="1" as="geometry" />
        </mxCell>
        <mxCell id="J0FeXdYLQNQOFnLGvNW3-33" value="&lt;span&gt;Create prepay&lt;/span&gt;" style="rounded=0;whiteSpace=wrap;html=1;" parent="WIyWlLk6GJQsqaUBKTNV-1" vertex="1">
          <mxGeometry x="-60" y="-890" width="120" height="60" as="geometry" />
        </mxCell>
        <mxCell id="J0FeXdYLQNQOFnLGvNW3-39" style="edgeStyle=orthogonalEdgeStyle;rounded=0;orthogonalLoop=1;jettySize=auto;html=1;entryX=0.5;entryY=0;entryDx=0;entryDy=0;" parent="WIyWlLk6GJQsqaUBKTNV-1" source="J0FeXdYLQNQOFnLGvNW3-36" target="J0FeXdYLQNQOFnLGvNW3-37" edge="1">
          <mxGeometry relative="1" as="geometry" />
        </mxCell>
        <mxCell id="J0FeXdYLQNQOFnLGvNW3-36" value="&lt;span&gt;Device sale with prepay#&lt;/span&gt;" style="rounded=0;whiteSpace=wrap;html=1;" parent="WIyWlLk6GJQsqaUBKTNV-1" vertex="1">
          <mxGeometry x="-60" y="-540" width="120" height="60" as="geometry" />
        </mxCell>
        <mxCell id="910tG2YWPLGzo3ox9mGQ-2" style="edgeStyle=orthogonalEdgeStyle;rounded=0;orthogonalLoop=1;jettySize=auto;html=1;entryX=0.5;entryY=0;entryDx=0;entryDy=0;fontSize=11;fontColor=#000000;" parent="WIyWlLk6GJQsqaUBKTNV-1" source="J0FeXdYLQNQOFnLGvNW3-37" target="910tG2YWPLGzo3ox9mGQ-1" edge="1">
          <mxGeometry relative="1" as="geometry" />
        </mxCell>
        <mxCell id="910tG2YWPLGzo3ox9mGQ-3" value="Y" style="edgeLabel;html=1;align=center;verticalAlign=middle;resizable=0;points=[];fontSize=11;fontColor=#000000;" parent="910tG2YWPLGzo3ox9mGQ-2" vertex="1" connectable="0">
          <mxGeometry x="0.3091" y="2" relative="1" as="geometry">
            <mxPoint x="-2" y="-16" as="offset" />
          </mxGeometry>
        </mxCell>
        <mxCell id="J0FeXdYLQNQOFnLGvNW3-37" value="Communication ok?" style="rhombus;whiteSpace=wrap;html=1;" parent="WIyWlLk6GJQsqaUBKTNV-1" vertex="1">
          <mxGeometry x="-80" y="-440" width="160" height="80" as="geometry" />
        </mxCell>
        <mxCell id="J0FeXdYLQNQOFnLGvNW3-43" style="edgeStyle=orthogonalEdgeStyle;rounded=0;orthogonalLoop=1;jettySize=auto;html=1;entryX=0.5;entryY=0;entryDx=0;entryDy=0;" parent="WIyWlLk6GJQsqaUBKTNV-1" source="J0FeXdYLQNQOFnLGvNW3-41" target="J0FeXdYLQNQOFnLGvNW3-20" edge="1">
          <mxGeometry relative="1" as="geometry" />
        </mxCell>
        <mxCell id="J0FeXdYLQNQOFnLGvNW3-41" value="Settle payment" style="rounded=0;whiteSpace=wrap;html=1;" parent="WIyWlLk6GJQsqaUBKTNV-1" vertex="1">
          <mxGeometry x="-60" y="-70" width="120" height="60" as="geometry" />
        </mxCell>
        <mxCell id="J0FeXdYLQNQOFnLGvNW3-48" style="edgeStyle=orthogonalEdgeStyle;rounded=0;orthogonalLoop=1;jettySize=auto;html=1;entryX=0.5;entryY=0;entryDx=0;entryDy=0;" parent="WIyWlLk6GJQsqaUBKTNV-1" source="J0FeXdYLQNQOFnLGvNW3-45" target="J0FeXdYLQNQOFnLGvNW3-47" edge="1">
          <mxGeometry relative="1" as="geometry" />
        </mxCell>
        <mxCell id="J0FeXdYLQNQOFnLGvNW3-45" value="Device query" style="rounded=0;whiteSpace=wrap;html=1;" parent="WIyWlLk6GJQsqaUBKTNV-1" vertex="1">
          <mxGeometry x="-365.15" y="-430" width="120" height="60" as="geometry" />
        </mxCell>
        <mxCell id="J0FeXdYLQNQOFnLGvNW3-56" style="edgeStyle=orthogonalEdgeStyle;rounded=0;orthogonalLoop=1;jettySize=auto;html=1;entryX=0.5;entryY=0;entryDx=0;entryDy=0;" parent="WIyWlLk6GJQsqaUBKTNV-1" source="J0FeXdYLQNQOFnLGvNW3-47" target="J0FeXdYLQNQOFnLGvNW3-55" edge="1">
          <mxGeometry relative="1" as="geometry">
            <Array as="points">
              <mxPoint x="-445" y="-300" />
            </Array>
          </mxGeometry>
        </mxCell>
        <mxCell id="J0FeXdYLQNQOFnLGvNW3-57" value="N" style="edgeLabel;html=1;align=center;verticalAlign=middle;resizable=0;points=[];" parent="J0FeXdYLQNQOFnLGvNW3-56" vertex="1" connectable="0">
          <mxGeometry x="-0.6" relative="1" as="geometry">
            <mxPoint x="39.32" y="-0.06" as="offset" />
          </mxGeometry>
        </mxCell>
        <mxCell id="910tG2YWPLGzo3ox9mGQ-6" style="edgeStyle=orthogonalEdgeStyle;rounded=0;orthogonalLoop=1;jettySize=auto;html=1;fontSize=11;fontColor=#000000;" parent="WIyWlLk6GJQsqaUBKTNV-1" source="J0FeXdYLQNQOFnLGvNW3-47" target="J0FeXdYLQNQOFnLGvNW3-63" edge="1">
          <mxGeometry relative="1" as="geometry" />
        </mxCell>
        <mxCell id="910tG2YWPLGzo3ox9mGQ-7" value="Y" style="edgeLabel;html=1;align=center;verticalAlign=middle;resizable=0;points=[];fontSize=11;fontColor=#000000;" parent="910tG2YWPLGzo3ox9mGQ-6" vertex="1" connectable="0">
          <mxGeometry x="0.2" y="1" relative="1" as="geometry">
            <mxPoint x="-1" y="-14" as="offset" />
          </mxGeometry>
        </mxCell>
        <mxCell id="J0FeXdYLQNQOFnLGvNW3-47" value="Communication ok?" style="rhombus;whiteSpace=wrap;html=1;" parent="WIyWlLk6GJQsqaUBKTNV-1" vertex="1">
          <mxGeometry x="-370.15" y="-340" width="130" height="80" as="geometry" />
        </mxCell>
        <mxCell id="J0FeXdYLQNQOFnLGvNW3-58" style="edgeStyle=orthogonalEdgeStyle;rounded=0;orthogonalLoop=1;jettySize=auto;html=1;entryX=0;entryY=0.5;entryDx=0;entryDy=0;" parent="WIyWlLk6GJQsqaUBKTNV-1" source="J0FeXdYLQNQOFnLGvNW3-55" target="J0FeXdYLQNQOFnLGvNW3-45" edge="1">
          <mxGeometry relative="1" as="geometry">
            <Array as="points">
              <mxPoint x="-580" y="-10" />
              <mxPoint x="-580" y="-400" />
            </Array>
          </mxGeometry>
        </mxCell>
        <mxCell id="J0FeXdYLQNQOFnLGvNW3-59" value="Y" style="edgeLabel;html=1;align=center;verticalAlign=middle;resizable=0;points=[];" parent="J0FeXdYLQNQOFnLGvNW3-58" vertex="1" connectable="0">
          <mxGeometry x="-0.9065" relative="1" as="geometry">
            <mxPoint as="offset" />
          </mxGeometry>
        </mxCell>
        <mxCell id="J0FeXdYLQNQOFnLGvNW3-60" style="edgeStyle=orthogonalEdgeStyle;rounded=0;orthogonalLoop=1;jettySize=auto;html=1;entryX=0;entryY=0.5;entryDx=0;entryDy=0;entryPerimeter=0;fillColor=#60a917;strokeColor=#2D7600;strokeWidth=5;exitX=0.5;exitY=1;exitDx=0;exitDy=0;" parent="WIyWlLk6GJQsqaUBKTNV-1" source="J0FeXdYLQNQOFnLGvNW3-55" target="J0FeXdYLQNQOFnLGvNW3-14" edge="1">
          <mxGeometry relative="1" as="geometry" />
        </mxCell>
        <mxCell id="J0FeXdYLQNQOFnLGvNW3-61" value="N: Uncertain state" style="edgeLabel;html=1;align=center;verticalAlign=middle;resizable=0;points=[];fontSize=16;fontColor=#CC0000;" parent="J0FeXdYLQNQOFnLGvNW3-60" vertex="1" connectable="0">
          <mxGeometry x="-0.4133" y="2" relative="1" as="geometry">
            <mxPoint x="57" y="22" as="offset" />
          </mxGeometry>
        </mxCell>
        <mxCell id="J0FeXdYLQNQOFnLGvNW3-55" value="Device error,&amp;nbsp;&lt;br&gt;retry?" style="rhombus;whiteSpace=wrap;html=1;labelBackgroundColor=none;fillColor=#dae8fc;strokeColor=#6c8ebf;" parent="WIyWlLk6GJQsqaUBKTNV-1" vertex="1">
          <mxGeometry x="-510" y="-50" width="130" height="80" as="geometry" />
        </mxCell>
        <mxCell id="910tG2YWPLGzo3ox9mGQ-9" style="edgeStyle=orthogonalEdgeStyle;rounded=0;orthogonalLoop=1;jettySize=auto;html=1;entryX=0;entryY=0.5;entryDx=0;entryDy=0;fontSize=11;fontColor=#000000;" parent="WIyWlLk6GJQsqaUBKTNV-1" source="J0FeXdYLQNQOFnLGvNW3-63" target="J0FeXdYLQNQOFnLGvNW3-41" edge="1">
          <mxGeometry relative="1" as="geometry">
            <Array as="points">
              <mxPoint x="-305" y="-40" />
            </Array>
          </mxGeometry>
        </mxCell>
        <mxCell id="910tG2YWPLGzo3ox9mGQ-12" value="Y" style="edgeLabel;html=1;align=center;verticalAlign=middle;resizable=0;points=[];fontSize=11;fontColor=#000000;" parent="910tG2YWPLGzo3ox9mGQ-9" vertex="1" connectable="0">
          <mxGeometry x="-0.8435" y="3" relative="1" as="geometry">
            <mxPoint x="-3.0700000000000003" y="-6.63" as="offset" />
          </mxGeometry>
        </mxCell>
        <mxCell id="910tG2YWPLGzo3ox9mGQ-17" style="edgeStyle=orthogonalEdgeStyle;rounded=0;orthogonalLoop=1;jettySize=auto;html=1;fontSize=11;fontColor=#000000;" parent="WIyWlLk6GJQsqaUBKTNV-1" source="J0FeXdYLQNQOFnLGvNW3-63" edge="1">
          <mxGeometry relative="1" as="geometry">
            <mxPoint x="-60" y="-510" as="targetPoint" />
            <Array as="points">
              <mxPoint x="-175" y="-180" />
              <mxPoint x="-175" y="-510" />
            </Array>
          </mxGeometry>
        </mxCell>
        <mxCell id="910tG2YWPLGzo3ox9mGQ-18" value="N" style="edgeLabel;html=1;align=center;verticalAlign=middle;resizable=0;points=[];fontSize=11;fontColor=#000000;" parent="910tG2YWPLGzo3ox9mGQ-17" vertex="1" connectable="0">
          <mxGeometry x="-0.9717" y="4" relative="1" as="geometry">
            <mxPoint x="11" y="4" as="offset" />
          </mxGeometry>
        </mxCell>
        <mxCell id="J0FeXdYLQNQOFnLGvNW3-63" value="&lt;span style=&quot;color: rgb(0 , 0 , 0) ; font-size: 11px&quot;&gt;Transaction approved?&lt;/span&gt;" style="rhombus;whiteSpace=wrap;html=1;fontSize=16;fontColor=#CC0000;" parent="WIyWlLk6GJQsqaUBKTNV-1" vertex="1">
          <mxGeometry x="-370.15" y="-220" width="130" height="80" as="geometry" />
        </mxCell>
        <mxCell id="910tG2YWPLGzo3ox9mGQ-4" style="edgeStyle=orthogonalEdgeStyle;rounded=0;orthogonalLoop=1;jettySize=auto;html=1;entryX=0.5;entryY=0;entryDx=0;entryDy=0;fontSize=11;fontColor=#000000;" parent="WIyWlLk6GJQsqaUBKTNV-1" source="910tG2YWPLGzo3ox9mGQ-1" target="J0FeXdYLQNQOFnLGvNW3-41" edge="1">
          <mxGeometry relative="1" as="geometry" />
        </mxCell>
        <mxCell id="910tG2YWPLGzo3ox9mGQ-5" value="Y" style="edgeLabel;html=1;align=center;verticalAlign=middle;resizable=0;points=[];fontSize=11;fontColor=#000000;" parent="910tG2YWPLGzo3ox9mGQ-4" vertex="1" connectable="0">
          <mxGeometry x="-0.44" y="4" relative="1" as="geometry">
            <mxPoint x="-4" y="-27.06" as="offset" />
          </mxGeometry>
        </mxCell>
        <mxCell id="nP5HC6B5rGNTpMBFGqKR-1" style="edgeStyle=orthogonalEdgeStyle;rounded=0;orthogonalLoop=1;jettySize=auto;html=1;entryX=0.5;entryY=0;entryDx=0;entryDy=0;" edge="1" parent="WIyWlLk6GJQsqaUBKTNV-1" source="910tG2YWPLGzo3ox9mGQ-1" target="nP5HC6B5rGNTpMBFGqKR-0">
          <mxGeometry relative="1" as="geometry" />
        </mxCell>
        <mxCell id="910tG2YWPLGzo3ox9mGQ-1" value="Transaction approved?" style="rhombus;whiteSpace=wrap;html=1;fontSize=11;fontColor=#000000;" parent="WIyWlLk6GJQsqaUBKTNV-1" vertex="1">
          <mxGeometry x="-80" y="-320" width="160" height="80" as="geometry" />
        </mxCell>
        <mxCell id="0Qifc_gtCfqO0uYGhMDS-11" style="edgeStyle=orthogonalEdgeStyle;rounded=0;orthogonalLoop=1;jettySize=auto;html=1;entryX=0.5;entryY=0;entryDx=0;entryDy=0;" parent="WIyWlLk6GJQsqaUBKTNV-1" source="0Qifc_gtCfqO0uYGhMDS-1" target="J0FeXdYLQNQOFnLGvNW3-36" edge="1">
          <mxGeometry relative="1" as="geometry" />
        </mxCell>
        <mxCell id="0Qifc_gtCfqO0uYGhMDS-12" value="N" style="edgeLabel;html=1;align=center;verticalAlign=middle;resizable=0;points=[];" parent="0Qifc_gtCfqO0uYGhMDS-11" vertex="1" connectable="0">
          <mxGeometry x="-0.6167" y="-1" relative="1" as="geometry">
            <mxPoint as="offset" />
          </mxGeometry>
        </mxCell>
        <mxCell id="0Qifc_gtCfqO0uYGhMDS-13" style="edgeStyle=orthogonalEdgeStyle;rounded=0;orthogonalLoop=1;jettySize=auto;html=1;entryX=0.5;entryY=0;entryDx=0;entryDy=0;" parent="WIyWlLk6GJQsqaUBKTNV-1" source="0Qifc_gtCfqO0uYGhMDS-1" target="J0FeXdYLQNQOFnLGvNW3-45" edge="1">
          <mxGeometry relative="1" as="geometry" />
        </mxCell>
        <mxCell id="0Qifc_gtCfqO0uYGhMDS-14" value="Y" style="edgeLabel;html=1;align=center;verticalAlign=middle;resizable=0;points=[];" parent="0Qifc_gtCfqO0uYGhMDS-13" vertex="1" connectable="0">
          <mxGeometry x="-0.9469" y="-3" relative="1" as="geometry">
            <mxPoint x="-5" y="3" as="offset" />
          </mxGeometry>
        </mxCell>
        <mxCell id="0Qifc_gtCfqO0uYGhMDS-1" value="Prepay need check?" style="rhombus;whiteSpace=wrap;html=1;" parent="WIyWlLk6GJQsqaUBKTNV-1" vertex="1">
          <mxGeometry x="-60" y="-680" width="120" height="80" as="geometry" />
        </mxCell>
        <mxCell id="0Qifc_gtCfqO0uYGhMDS-6" style="edgeStyle=orthogonalEdgeStyle;rounded=0;orthogonalLoop=1;jettySize=auto;html=1;entryX=1;entryY=0.5;entryDx=0;entryDy=0;exitX=1;exitY=0.5;exitDx=0;exitDy=0;" parent="WIyWlLk6GJQsqaUBKTNV-1" source="0Qifc_gtCfqO0uYGhMDS-4" target="J0FeXdYLQNQOFnLGvNW3-33" edge="1">
          <mxGeometry relative="1" as="geometry">
            <Array as="points">
              <mxPoint x="520" y="-680" />
              <mxPoint x="520" y="-860" />
            </Array>
          </mxGeometry>
        </mxCell>
        <mxCell id="0Qifc_gtCfqO0uYGhMDS-7" value="Y" style="edgeLabel;html=1;align=center;verticalAlign=middle;resizable=0;points=[];" parent="0Qifc_gtCfqO0uYGhMDS-6" vertex="1" connectable="0">
          <mxGeometry x="-0.94" y="-2" relative="1" as="geometry">
            <mxPoint y="-2" as="offset" />
          </mxGeometry>
        </mxCell>
        <mxCell id="0Qifc_gtCfqO0uYGhMDS-8" style="edgeStyle=orthogonalEdgeStyle;rounded=0;orthogonalLoop=1;jettySize=auto;html=1;exitX=0.5;exitY=1;exitDx=0;exitDy=0;" parent="WIyWlLk6GJQsqaUBKTNV-1" source="0Qifc_gtCfqO0uYGhMDS-4" edge="1">
          <mxGeometry relative="1" as="geometry">
            <mxPoint y="210" as="targetPoint" />
            <Array as="points">
              <mxPoint x="405" y="270" />
              <mxPoint y="270" />
            </Array>
          </mxGeometry>
        </mxCell>
        <mxCell id="0Qifc_gtCfqO0uYGhMDS-24" value="N" style="edgeLabel;html=1;align=center;verticalAlign=middle;resizable=0;points=[];" parent="0Qifc_gtCfqO0uYGhMDS-8" vertex="1" connectable="0">
          <mxGeometry x="-0.9616" y="-2" relative="1" as="geometry">
            <mxPoint y="1" as="offset" />
          </mxGeometry>
        </mxCell>
        <mxCell id="0Qifc_gtCfqO0uYGhMDS-4" value="Prepay error,&amp;nbsp;&lt;br&gt;retry?" style="rhombus;whiteSpace=wrap;html=1;labelBackgroundColor=none;fillColor=#dae8fc;strokeColor=#6c8ebf;" parent="WIyWlLk6GJQsqaUBKTNV-1" vertex="1">
          <mxGeometry x="340" y="-720" width="130" height="80" as="geometry" />
        </mxCell>
        <mxCell id="0Qifc_gtCfqO0uYGhMDS-22" style="edgeStyle=orthogonalEdgeStyle;rounded=0;orthogonalLoop=1;jettySize=auto;html=1;entryX=1;entryY=0.5;entryDx=0;entryDy=0;" parent="WIyWlLk6GJQsqaUBKTNV-1" source="0Qifc_gtCfqO0uYGhMDS-15" target="J0FeXdYLQNQOFnLGvNW3-41" edge="1">
          <mxGeometry relative="1" as="geometry">
            <Array as="points">
              <mxPoint x="340" y="120" />
              <mxPoint x="340" y="-40" />
            </Array>
          </mxGeometry>
        </mxCell>
        <mxCell id="0Qifc_gtCfqO0uYGhMDS-23" value="Y" style="edgeLabel;html=1;align=center;verticalAlign=middle;resizable=0;points=[];" parent="0Qifc_gtCfqO0uYGhMDS-22" vertex="1" connectable="0">
          <mxGeometry x="-0.9278" y="-1" relative="1" as="geometry">
            <mxPoint as="offset" />
          </mxGeometry>
        </mxCell>
        <mxCell id="0Qifc_gtCfqO0uYGhMDS-15" value="Settle error,&amp;nbsp;&lt;br&gt;retry?" style="rhombus;whiteSpace=wrap;html=1;labelBackgroundColor=none;fillColor=#dae8fc;strokeColor=#6c8ebf;" parent="WIyWlLk6GJQsqaUBKTNV-1" vertex="1">
          <mxGeometry x="150" y="80" width="130" height="80" as="geometry" />
        </mxCell>
        <mxCell id="0Qifc_gtCfqO0uYGhMDS-20" style="edgeStyle=orthogonalEdgeStyle;rounded=0;orthogonalLoop=1;jettySize=auto;html=1;fillColor=#60a917;strokeColor=#2D7600;strokeWidth=5;exitX=0.5;exitY=1;exitDx=0;exitDy=0;" parent="WIyWlLk6GJQsqaUBKTNV-1" source="0Qifc_gtCfqO0uYGhMDS-15" edge="1">
          <mxGeometry relative="1" as="geometry">
            <mxPoint x="-435.0000000000002" y="39.999999999999545" as="sourcePoint" />
            <mxPoint x="50" y="180" as="targetPoint" />
            <Array as="points">
              <mxPoint x="215" y="180" />
              <mxPoint x="50" y="180" />
            </Array>
          </mxGeometry>
        </mxCell>
        <mxCell id="0Qifc_gtCfqO0uYGhMDS-21" value="N: Uncertain state" style="edgeLabel;html=1;align=center;verticalAlign=middle;resizable=0;points=[];fontSize=16;fontColor=#CC0000;" parent="0Qifc_gtCfqO0uYGhMDS-20" vertex="1" connectable="0">
          <mxGeometry x="-0.4133" y="2" relative="1" as="geometry">
            <mxPoint x="-30.879999999999995" y="18" as="offset" />
          </mxGeometry>
        </mxCell>
        <mxCell id="nP5HC6B5rGNTpMBFGqKR-2" style="edgeStyle=orthogonalEdgeStyle;rounded=0;orthogonalLoop=1;jettySize=auto;html=1;entryX=0.89;entryY=0.89;entryDx=0;entryDy=0;entryPerimeter=0;exitX=0.5;exitY=1;exitDx=0;exitDy=0;" edge="1" parent="WIyWlLk6GJQsqaUBKTNV-1" source="nP5HC6B5rGNTpMBFGqKR-0" target="J0FeXdYLQNQOFnLGvNW3-14">
          <mxGeometry relative="1" as="geometry">
            <Array as="points">
              <mxPoint x="175" y="-120" />
              <mxPoint x="380" y="-120" />
              <mxPoint x="380" y="230" />
              <mxPoint x="39" y="230" />
            </Array>
          </mxGeometry>
        </mxCell>
        <mxCell id="nP5HC6B5rGNTpMBFGqKR-3" value="N" style="edgeLabel;html=1;align=center;verticalAlign=middle;resizable=0;points=[];" vertex="1" connectable="0" parent="nP5HC6B5rGNTpMBFGqKR-2">
          <mxGeometry x="-0.9424" y="3" relative="1" as="geometry">
            <mxPoint x="-3" y="-16" as="offset" />
          </mxGeometry>
        </mxCell>
        <mxCell id="nP5HC6B5rGNTpMBFGqKR-4" style="edgeStyle=orthogonalEdgeStyle;rounded=0;orthogonalLoop=1;jettySize=auto;html=1;entryX=1;entryY=0.5;entryDx=0;entryDy=0;exitX=1;exitY=0.5;exitDx=0;exitDy=0;" edge="1" parent="WIyWlLk6GJQsqaUBKTNV-1" source="nP5HC6B5rGNTpMBFGqKR-0" target="J0FeXdYLQNQOFnLGvNW3-36">
          <mxGeometry relative="1" as="geometry">
            <Array as="points">
              <mxPoint x="300" y="-215" />
              <mxPoint x="300" y="-510" />
            </Array>
          </mxGeometry>
        </mxCell>
        <mxCell id="nP5HC6B5rGNTpMBFGqKR-5" value="Y" style="edgeLabel;html=1;align=center;verticalAlign=middle;resizable=0;points=[];" vertex="1" connectable="0" parent="nP5HC6B5rGNTpMBFGqKR-4">
          <mxGeometry x="-0.9281" relative="1" as="geometry">
            <mxPoint x="-3" as="offset" />
          </mxGeometry>
        </mxCell>
        <mxCell id="nP5HC6B5rGNTpMBFGqKR-0" value="Prepay error,&amp;nbsp;&lt;br&gt;retry?" style="rhombus;whiteSpace=wrap;html=1;labelBackgroundColor=none;fillColor=#dae8fc;strokeColor=#6c8ebf;" vertex="1" parent="WIyWlLk6GJQsqaUBKTNV-1">
          <mxGeometry x="110" y="-255" width="130" height="80" as="geometry" />
        </mxCell>
      </root>
    </mxGraphModel>
  </diagram>
</mxfile>
